<?xml version="1.0" standalone="no"?>
<!DOCTYPE svg PUBLIC "-//W3C//DTD SVG 20010904//EN"
 "http://www.w3.org/TR/2001/REC-SVG-20010904/DTD/svg10.dtd">
<svg version="1.0" xmlns="http://www.w3.org/2000/svg"
 width="700.000000pt" height="700.000000pt" viewBox="0 0 700.000000 700.000000"
 preserveAspectRatio="xMidYMid meet">
<metadata>
Created by potrace 1.14, written by Peter Selinger 2001-2017
</metadata>
<g transform="translate(0.000000,700.000000) scale(0.100000,-0.100000)"
fill="#000000" stroke="none">
<path d="M3367 6994 c-1 -1 -49 -5 -107 -8 -58 -4 -117 -8 -130 -11 -14 -2
-52 -7 -85 -10 -87 -9 -303 -52 -430 -85 -361 -96 -720 -256 -1025 -457 -65
-43 -72 -48 -123 -85 -61 -44 -52 -37 -147 -113 -111 -89 -133 -108 -275 -250
-170 -170 -239 -248 -356 -410 -112 -154 -193 -284 -280 -450 -187 -359 -324
-796 -364 -1160 -3 -22 -7 -56 -10 -75 -31 -229 -23 -604 20 -905 43 -301 144
-631 288 -943 38 -85 66 -157 61 -160 -19 -14 -62 -79 -65 -98 -5 -31 10 -62
34 -70 41 -14 49 -13 79 17 24 22 34 26 44 18 8 -6 14 -15 14 -20 0 -5 12 -27
26 -49 15 -22 24 -43 20 -47 -3 -3 -129 -7 -278 -7 l-273 -1 -2 -65 -1 -65
228 -1 c143 0 227 4 223 10 -4 5 -1 6 8 0 8 -5 56 -9 107 -9 80 -1 94 -4 106
-21 122 -172 360 -435 516 -569 30 -26 69 -59 85 -74 246 -214 641 -446 980
-574 164 -62 431 -141 550 -161 17 -3 43 -8 58 -12 16 -3 38 -7 50 -9 31 -4
186 -25 223 -30 161 -23 579 -23 744 0 14 2 43 5 65 8 22 3 63 8 90 12 199 26
598 135 770 210 506 220 819 428 1166 774 153 154 188 193 300 341 l80 105
134 -1 c84 0 132 3 128 9 -4 6 -1 7 8 1 20 -13 121 -13 138 0 11 8 13 8 8 0
-4 -7 21 -11 83 -10 58 0 86 4 82 11 -3 5 1 5 9 -2 8 -6 24 -11 34 -9 17 3 20
11 21 68 l1 65 -275 1 c-151 1 -277 4 -280 7 -3 3 21 5 52 5 l58 0 -26 31
c-31 37 -34 54 -7 39 46 -24 101 5 96 51 -1 13 -3 30 -4 38 0 7 -7 11 -15 8
-10 -4 -12 0 -9 14 3 10 0 19 -6 19 -6 0 9 41 35 92 217 433 337 870 371 1353
12 162 5 504 -11 605 -3 14 -7 48 -10 75 -25 229 -98 522 -194 781 -217 585
-644 1160 -1142 1537 -41 31 -80 61 -86 66 -13 11 -211 140 -245 160 -480 284
-974 440 -1539 487 -68 6 -388 12 -393 8z"/>
</g>
</svg>
