<?xml version="1.0" standalone="no"?>
<!DOCTYPE svg PUBLIC "-//W3C//DTD SVG 20010904//EN"
 "http://www.w3.org/TR/2001/REC-SVG-20010904/DTD/svg10.dtd">
<svg version="1.0" xmlns="http://www.w3.org/2000/svg"
 width="700.000000pt" height="700.000000pt" viewBox="0 0 700.000000 700.000000"
 preserveAspectRatio="xMidYMid meet">
<metadata>
Created by potrace 1.14, written by Peter Selinger 2001-2017
</metadata>
<g transform="translate(0.000000,700.000000) scale(0.100000,-0.100000)"
fill="#000000" stroke="none">
<path d="M3367 6994 c-1 -1 -49 -5 -107 -8 -58 -4 -117 -8 -130 -11 -14 -2
-52 -7 -85 -10 -87 -9 -303 -52 -430 -85 -361 -96 -720 -256 -1025 -457 -65
-43 -72 -48 -123 -85 -61 -44 -52 -37 -147 -113 -111 -89 -133 -108 -275 -250
-170 -170 -239 -248 -356 -410 -112 -154 -193 -284 -280 -450 -187 -359 -324
-796 -364 -1160 -3 -22 -7 -56 -10 -75 -31 -229 -23 -604 20 -905 51 -353 184
-758 361 -1093 54 -102 62 -127 45 -134 -15 -5 -121 -151 -122 -168 -2 -29 3
-45 19 -60 16 -14 29 -16 73 -12 9 1 29 21 45 45 16 23 38 54 50 69 l21 26 74
-106 c79 -114 88 -129 71 -118 -6 3 -13 2 -17 -3 -3 -6 -15 -7 -28 -3 -27 10
-88 9 -104 -1 -7 -5 -13 -4 -13 1 0 5 -10 9 -22 8 -14 -1 -22 -7 -20 -16 1
-10 -3 -8 -13 5 -18 22 -24 23 -36 3 -5 -7 -9 -8 -9 -3 0 12 -149 13 -168 1
-7 -4 -12 -3 -12 2 0 4 -31 7 -69 6 -81 -3 -111 -21 -111 -69 0 -64 1 -64 387
-64 l348 0 60 -68 c80 -91 257 -269 325 -328 30 -26 69 -59 85 -74 246 -214
641 -446 980 -574 164 -62 431 -141 550 -161 17 -3 43 -8 58 -12 16 -3 38 -7
50 -9 31 -4 186 -25 223 -30 161 -23 579 -23 744 0 14 2 43 5 65 8 22 3 63 8
90 12 199 26 598 135 770 210 354 154 539 259 800 455 196 148 389 327 550
514 l51 58 306 -1 306 -2 20 25 c23 30 19 67 -9 92 -16 14 -40 18 -127 19 -61
0 -113 -4 -121 -10 -11 -7 -13 -7 -8 1 3 6 -4 21 -17 35 -12 13 -25 32 -29 42
-6 15 -4 16 13 7 15 -8 26 -7 45 6 14 9 26 20 26 25 6 40 2 59 -21 89 -13 19
-28 37 -31 40 -3 3 -11 15 -18 28 -7 12 -16 20 -20 18 -21 -13 -1 38 54 139
67 124 162 330 193 420 11 33 34 98 51 145 85 244 147 563 168 865 12 162 5
504 -11 605 -3 14 -7 48 -10 75 -25 229 -98 522 -194 781 -217 585 -644 1160
-1142 1537 -41 31 -80 61 -86 66 -13 11 -211 140 -245 160 -480 284 -974 440
-1539 487 -68 6 -388 12 -393 8z m-2952 -5393 c-9 -8 -36 -10 -30 -2 2 4 11 8
20 8 8 0 13 -3 10 -6z m226 -248 c13 -16 12 -17 -3 -4 -10 7 -18 15 -18 17 0
8 8 3 21 -13z"/>
</g>
</svg>
